<svg xmlns="http://www.w3.org/2000/svg" xmlns:xlink="http://www.w3.org/1999/xlink" width="12" height="12" viewBox="0 0 12 12">
    <defs>
        <clipPath id="clip-path">
            <path id="_Icon_Сolor" data-name="🎨 Icon Сolor" d="M7.414,6l4.293-4.293A1,1,0,1,0,10.293.293L6,4.586,1.707.293A1,1,0,0,0,.293,1.707L4.586,6,.293,10.293a1,1,0,1,0,1.414,1.414L6,7.414l4.293,4.293a1,1,0,0,0,1.414-1.414Z" transform="translate(6 6)" fill="#222b45"/>
        </clipPath>
    </defs>
    <g id="Сгруппировать_15" data-name="Сгруппировать 15" transform="translate(-6 -6)">
        <path id="_Icon_Сolor-2" data-name="🎨 Icon Сolor" d="M7.414,6l4.293-4.293A1,1,0,1,0,10.293.293L6,4.586,1.707.293A1,1,0,0,0,.293,1.707L4.586,6,.293,10.293a1,1,0,1,0,1.414,1.414L6,7.414l4.293,4.293a1,1,0,0,0,1.414-1.414Z" transform="translate(6 6)" fill="#fff"/>
    </g>
</svg>
