<svg xmlns="http://www.w3.org/2000/svg" width="18" height="18" viewBox="0 0 18 18">
    <g id="Icons_18px_Grey_Icon" transform="translate(0 0)">
        <path id="Icon" d="M16.758,18a.51.51,0,0,1-.365-.152l-4.648-4.682a.5.5,0,0,0-.357-.148.541.541,0,0,0-.3.092,7.164,7.164,0,1,1,2.047-2.062.521.521,0,0,0,.058.655l4.657,4.692a.517.517,0,0,1,0,.727l-.727.727A.512.512,0,0,1,16.758,18ZM7.151,2.043a5.1,5.1,0,0,0-3.6,8.705,5.1,5.1,0,1,0,7.207-7.213A5.059,5.059,0,0,0,7.151,2.043Z" transform="translate(0 0)" fill="#fff"/>
    </g>
</svg>
